<svg width="180" height="48" viewBox="0 0 180 48" fill="none" xmlns="http://www.w3.org/2000/svg">
<path d="M14.1061 19.6565C19.6051 17.0266 23.9086 12.5636 26.3792 6.98482C24.7853 5.3112 22.7132 4.11575 20.4817 3.39848L19.2863 3C19.2066 3.15939 19.1269 3.39849 19.1269 3.55788C17.2142 8.97724 13.3091 13.3605 8.04924 15.8311C4.38325 17.5844 1.6736 20.7723 0.398477 24.5977L0 25.7932C0.159391 25.8729 0.39848 25.9525 0.557871 25.9525C2.07208 26.5104 3.58629 27.2277 5.02081 28.1044C7.01319 24.518 10.201 21.4896 14.1061 19.6565Z" fill="#9BF364"/>
<path opacity="0.6" d="M37.2173 19.9756C34.2686 24.4386 30.2041 28.0249 25.1833 30.4158C21.1188 32.3285 18.0107 35.9149 16.5762 40.2185L16.1777 41.5733C17.6919 42.9281 19.5249 43.9642 21.5173 44.6018L22.7128 45.0003C22.7924 44.8409 22.8721 44.6018 22.8721 44.4424C24.7848 39.023 28.6899 34.6397 33.9498 32.1691C37.6158 30.4158 40.4051 27.228 41.6005 23.4025L41.999 22.2071C40.3254 21.7289 38.7315 20.9319 37.2173 19.9756Z" fill="#B6F7A1"/>
<path opacity="0.8" d="M12.9903 37.4285C14.9827 32.6467 18.6487 28.7415 23.3507 26.51C27.6542 24.4379 31.2405 21.2501 33.7111 17.345C31.8781 15.5916 30.3639 13.5992 29.2481 11.2083C26.2994 16.6277 21.6771 21.011 16.0187 23.7207C12.7512 25.2349 10.1213 27.8649 8.52734 31.0528C10.2806 32.7264 11.7152 34.7985 12.8309 37.1097C12.8309 37.1097 12.9106 37.2691 12.9903 37.4285Z" fill="#ADFF79"/>
<path d="M53.9671 34V16.12H57.6871V30.76H65.2471V34H53.9671ZM73.2474 34.288C71.8394 34.288 70.5834 33.992 69.4794 33.4C68.3754 32.808 67.5034 32 66.8634 30.976C66.2394 29.936 65.9274 28.76 65.9274 27.448V16.12H69.6474V27.208C69.6474 27.912 69.7994 28.552 70.1034 29.128C70.4234 29.688 70.8554 30.128 71.3994 30.448C71.9434 30.768 72.5594 30.928 73.2474 30.928C73.9514 30.928 74.5674 30.768 75.0954 30.448C75.6394 30.128 76.0634 29.688 76.3674 29.128C76.6874 28.552 76.8474 27.912 76.8474 27.208V16.12H80.5674V27.448C80.5674 28.76 80.2474 29.936 79.6074 30.976C78.9834 32 78.1194 32.808 77.0154 33.4C75.9114 33.992 74.6554 34.288 73.2474 34.288ZM83.0306 34V16.12H86.6306L93.3266 25H91.6466L98.1506 16.12H101.751V34H98.0306V20.224L99.5186 20.56L92.6306 29.44H92.1506L85.5026 20.56L86.7506 20.224V34H83.0306ZM104.441 34V16.12H108.161V34H104.441ZM110.852 34V16.12H113.708L123.308 28.768L121.772 29.128V16.12H125.492V34H122.612L113.18 21.256L114.572 20.896V34H110.852ZM137.136 34.288C135.792 34.288 134.544 34.056 133.392 33.592C132.24 33.128 131.232 32.48 130.368 31.648C129.52 30.8 128.856 29.816 128.376 28.696C127.896 27.576 127.656 26.36 127.656 25.048C127.656 23.736 127.888 22.52 128.352 21.4C128.832 20.28 129.496 19.304 130.344 18.472C131.208 17.64 132.216 16.992 133.368 16.528C134.52 16.064 135.776 15.832 137.136 15.832C138.496 15.832 139.752 16.064 140.904 16.528C142.056 16.992 143.056 17.64 143.904 18.472C144.768 19.304 145.432 20.28 145.896 21.4C146.376 22.52 146.616 23.736 146.616 25.048C146.616 26.36 146.376 27.576 145.896 28.696C145.416 29.816 144.744 30.8 143.88 31.648C143.032 32.48 142.032 33.128 140.88 33.592C139.728 34.056 138.48 34.288 137.136 34.288ZM137.136 30.928C137.952 30.928 138.704 30.784 139.392 30.496C140.096 30.208 140.712 29.808 141.24 29.296C141.768 28.768 142.176 28.144 142.464 27.424C142.752 26.704 142.896 25.912 142.896 25.048C142.896 24.184 142.752 23.4 142.464 22.696C142.176 21.976 141.768 21.352 141.24 20.824C140.712 20.296 140.096 19.896 139.392 19.624C138.704 19.336 137.952 19.192 137.136 19.192C136.32 19.192 135.56 19.336 134.856 19.624C134.168 19.896 133.56 20.296 133.032 20.824C132.504 21.352 132.096 21.976 131.808 22.696C131.52 23.4 131.376 24.184 131.376 25.048C131.376 25.912 131.52 26.704 131.808 27.424C132.096 28.144 132.504 28.768 133.032 29.296C133.56 29.808 134.168 30.208 134.856 30.496C135.56 30.784 136.32 30.928 137.136 30.928ZM155.879 34.288C154.471 34.288 153.215 33.992 152.111 33.4C151.007 32.808 150.135 32 149.495 30.976C148.871 29.936 148.559 28.76 148.559 27.448V16.12H152.279V27.208C152.279 27.912 152.431 28.552 152.735 29.128C153.055 29.688 153.487 30.128 154.031 30.448C154.575 30.768 155.191 30.928 155.879 30.928C156.583 30.928 157.199 30.768 157.727 30.448C158.271 30.128 158.695 29.688 158.999 29.128C159.319 28.552 159.479 27.912 159.479 27.208V16.12H163.199V27.448C163.199 28.76 162.879 29.936 162.239 30.976C161.615 32 160.751 32.808 159.647 33.4C158.543 33.992 157.287 34.288 155.879 34.288ZM172.166 34.288C171.046 34.288 169.99 34.088 168.998 33.688C168.022 33.272 167.174 32.688 166.454 31.936C165.75 31.184 165.222 30.296 164.87 29.272L167.918 27.904C168.366 28.88 168.982 29.648 169.766 30.208C170.566 30.768 171.446 31.048 172.406 31.048C172.918 31.048 173.358 30.968 173.726 30.808C174.094 30.648 174.382 30.432 174.59 30.16C174.798 29.872 174.902 29.536 174.902 29.152C174.902 28.736 174.774 28.384 174.518 28.096C174.262 27.792 173.862 27.552 173.318 27.376L169.814 26.224C168.39 25.76 167.318 25.104 166.598 24.256C165.878 23.392 165.518 22.36 165.518 21.16C165.518 20.104 165.774 19.176 166.286 18.376C166.814 17.576 167.542 16.952 168.47 16.504C169.414 16.056 170.494 15.832 171.71 15.832C172.782 15.832 173.774 16.016 174.686 16.384C175.598 16.752 176.382 17.272 177.038 17.944C177.71 18.616 178.214 19.424 178.55 20.368L175.526 21.736C175.19 20.904 174.686 20.256 174.014 19.792C173.342 19.312 172.574 19.072 171.71 19.072C171.214 19.072 170.774 19.152 170.39 19.312C170.006 19.472 169.71 19.704 169.502 20.008C169.294 20.296 169.19 20.632 169.19 21.016C169.19 21.432 169.326 21.8 169.598 22.12C169.87 22.424 170.278 22.664 170.822 22.84L174.254 23.944C175.694 24.408 176.766 25.056 177.47 25.888C178.19 26.72 178.55 27.736 178.55 28.936C178.55 29.976 178.278 30.904 177.734 31.72C177.19 32.52 176.438 33.152 175.478 33.616C174.534 34.064 173.43 34.288 172.166 34.288Z" fill="#1D2A1F"/>
</svg>
