<svg width="42" height="48" viewBox="0 0 42 48" fill="none" xmlns="http://www.w3.org/2000/svg">
<path d="M14.1061 19.6565C19.6051 17.0266 23.9086 12.5636 26.3792 6.98482C24.7853 5.3112 22.7132 4.11575 20.4817 3.39848L19.2863 3C19.2066 3.15939 19.1269 3.39849 19.1269 3.55788C17.2142 8.97724 13.3091 13.3605 8.04924 15.8311C4.38325 17.5844 1.6736 20.7723 0.398477 24.5977L0 25.7932C0.159391 25.8729 0.39848 25.9525 0.557871 25.9525C2.07208 26.5104 3.58629 27.2277 5.02081 28.1044C7.01319 24.518 10.201 21.4896 14.1061 19.6565Z" fill="#9BF364"/>
<path opacity="0.6" d="M37.2173 19.9756C34.2686 24.4386 30.2041 28.0249 25.1833 30.4158C21.1188 32.3285 18.0107 35.9149 16.5762 40.2185L16.1777 41.5733C17.6919 42.9281 19.5249 43.9642 21.5173 44.6018L22.7128 45.0003C22.7924 44.8409 22.8721 44.6018 22.8721 44.4424C24.7848 39.023 28.6899 34.6397 33.9498 32.1691C37.6158 30.4158 40.4051 27.228 41.6005 23.4025L41.999 22.2071C40.3254 21.7289 38.7315 20.9319 37.2173 19.9756Z" fill="#B6F7A1"/>
<path opacity="0.8" d="M12.9903 37.4285C14.9827 32.6467 18.6487 28.7415 23.3507 26.51C27.6542 24.4379 31.2405 21.2501 33.7111 17.345C31.8781 15.5916 30.3639 13.5992 29.2481 11.2083C26.2994 16.6277 21.6771 21.011 16.0187 23.7207C12.7512 25.2349 10.1213 27.8649 8.52734 31.0528C10.2806 32.7264 11.7152 34.7985 12.8309 37.1097C12.8309 37.1097 12.9106 37.2691 12.9903 37.4285Z" fill="#ADFF79"/>
</svg>
