<svg width="80" height="92" viewBox="0 0 80 92" fill="none" xmlns="http://www.w3.org/2000/svg">
<path d="M26.8687 37.4411C37.343 32.4316 45.5402 23.9307 50.246 13.3045C47.21 10.1166 43.2632 7.83959 39.0128 6.47337L36.7358 5.71436C36.584 6.01796 36.4322 6.47339 36.4322 6.77699C32.7889 17.0996 25.3507 25.4487 15.3319 30.1546C8.34905 33.4942 3.18781 39.5664 0.759003 46.8529L0 49.1299C0.303601 49.2817 0.75901 49.4335 1.06261 49.4335C3.94682 50.4961 6.83104 51.8624 9.56345 53.5322C13.3585 46.7011 19.4305 40.9326 26.8687 37.4411Z" fill="#9BF364"/>
<path opacity="0.6" d="M70.8901 38.0488C65.2734 46.5498 57.5316 53.3809 47.9682 57.935C40.2263 61.5782 34.3061 68.4094 31.5737 76.6067L30.8147 79.1873C33.6989 81.768 37.1903 83.7414 40.9853 84.9559L43.2623 85.7149C43.4141 85.4113 43.5659 84.9558 43.5659 84.6522C47.2092 74.3297 54.6474 65.9805 64.6663 61.2747C71.6491 57.935 76.9621 51.8629 79.2391 44.5764L79.9981 42.2993C76.8103 41.3885 73.7743 39.8705 70.8901 38.0488Z" fill="#B6F7A1"/>
<path opacity="0.8" d="M24.7433 71.2927C28.5383 62.1845 35.5211 54.7462 44.4774 50.4957C52.6746 46.5489 59.5056 40.4768 64.2114 33.0384C60.72 29.6988 57.8358 25.9037 55.7106 21.3496C50.094 31.6722 41.2895 40.0213 30.5117 45.1826C24.2879 48.0669 19.2784 53.0764 16.2424 59.1485C19.582 62.3364 22.3145 66.2832 24.4397 70.6855C24.4397 70.6855 24.5915 70.9891 24.7433 71.2927Z" fill="#ADFF79"/>
</svg>
