<svg width="32" height="32" viewBox="0 0 32 32" fill="none" xmlns="http://www.w3.org/2000/svg">
<path d="M23.7786 21.9502C23.6472 21.9503 23.517 21.9245 23.3956 21.8742C23.2742 21.824 23.1639 21.7503 23.0709 21.6573C22.978 21.5644 22.9043 21.4541 22.854 21.3327C22.8038 21.2112 22.778 21.0811 22.778 20.9497L22.7789 10.6356L8.92935 24.4852C8.74181 24.6727 8.48746 24.7781 8.22224 24.7781C7.95703 24.7781 7.70267 24.6727 7.51514 24.4852C7.3276 24.2977 7.22224 24.0433 7.22224 23.7781C7.22224 23.5129 7.3276 23.2585 7.51514 23.071L21.3647 9.22142L11.0507 9.22231C10.7853 9.22231 10.5308 9.11689 10.3432 8.92925C10.1555 8.74161 10.0501 8.48711 10.0501 8.22175C10.0501 7.95639 10.1555 7.70189 10.3432 7.51425C10.5308 7.32661 10.7853 7.22119 11.0507 7.22119L23.7786 7.22119C23.91 7.22112 24.0401 7.24695 24.1616 7.29721C24.283 7.34747 24.3933 7.42116 24.4863 7.51409C24.5792 7.60701 24.6529 7.71734 24.7031 7.83877C24.7534 7.96019 24.7792 8.09034 24.7791 8.22175L24.7792 20.9497C24.7792 21.0811 24.7534 21.2112 24.7031 21.3327C24.6529 21.4541 24.5792 21.5644 24.4863 21.6573C24.3933 21.7503 24.283 21.824 24.1616 21.8742C24.0402 21.9245 23.91 21.9503 23.7786 21.9502Z" fill="#1D2A1F"/>
</svg>
