<svg width="48" height="48" viewBox="0 0 48 48" fill="none" xmlns="http://www.w3.org/2000/svg">
<path d="M34.5 18V30L24 36L13.5 30V18L24 12L34.5 18Z" fill="#A4F58A" fill-opacity="0.2"/>
<path d="M43.5 9V16.5C43.5 16.8978 43.342 17.2794 43.0607 17.5607C42.7794 17.842 42.3978 18 42 18C41.6022 18 41.2206 17.842 40.9393 17.5607C40.658 17.2794 40.5 16.8978 40.5 16.5V10.5H34.5C34.1022 10.5 33.7206 10.342 33.4393 10.0607C33.158 9.77936 33 9.39782 33 9C33 8.60218 33.158 8.22064 33.4393 7.93934C33.7206 7.65804 34.1022 7.5 34.5 7.5H42C42.3978 7.5 42.7794 7.65804 43.0607 7.93934C43.342 8.22064 43.5 8.60218 43.5 9ZM13.5 37.5H7.5V31.5C7.5 31.1022 7.34196 30.7206 7.06066 30.4393C6.77936 30.158 6.39782 30 6 30C5.60218 30 5.22064 30.158 4.93934 30.4393C4.65804 30.7206 4.5 31.1022 4.5 31.5V39C4.5 39.3978 4.65804 39.7794 4.93934 40.0607C5.22064 40.342 5.60218 40.5 6 40.5H13.5C13.8978 40.5 14.2794 40.342 14.5607 40.0607C14.842 39.7794 15 39.3978 15 39C15 38.6022 14.842 38.2206 14.5607 37.9393C14.2794 37.658 13.8978 37.5 13.5 37.5ZM42 30C41.6022 30 41.2206 30.158 40.9393 30.4393C40.658 30.7206 40.5 31.1022 40.5 31.5V37.5H34.5C34.1022 37.5 33.7206 37.658 33.4393 37.9393C33.158 38.2206 33 38.6022 33 39C33 39.3978 33.158 39.7794 33.4393 40.0607C33.7206 40.342 34.1022 40.5 34.5 40.5H42C42.3978 40.5 42.7794 40.342 43.0607 40.0607C43.342 39.7794 43.5 39.3978 43.5 39V31.5C43.5 31.1022 43.342 30.7206 43.0607 30.4393C42.7794 30.158 42.3978 30 42 30ZM6 18C6.39782 18 6.77936 17.842 7.06066 17.5607C7.34196 17.2794 7.5 16.8978 7.5 16.5V10.5H13.5C13.8978 10.5 14.2794 10.342 14.5607 10.0607C14.842 9.77936 15 9.39782 15 9C15 8.60218 14.842 8.22064 14.5607 7.93934C14.2794 7.65804 13.8978 7.5 13.5 7.5H6C5.60218 7.5 5.22064 7.65804 4.93934 7.93934C4.65804 8.22064 4.5 8.60218 4.5 9V16.5C4.5 16.8978 4.65804 17.2794 4.93934 17.5607C5.22064 17.842 5.60218 18 6 18ZM35.25 31.3125L24.75 37.3125C24.5233 37.4421 24.2667 37.5102 24.0056 37.5102C23.7445 37.5102 23.4879 37.4421 23.2612 37.3125L12.75 31.3125C12.52 31.1797 12.3293 30.9882 12.1976 30.7576C12.0658 30.527 11.9976 30.2656 12 30V18C11.9976 17.7344 12.0658 17.473 12.1976 17.2424C12.3293 17.0118 12.52 16.8203 12.75 16.6875L23.25 10.6875C23.4767 10.5579 23.7333 10.4898 23.9944 10.4898C24.2555 10.4898 24.5121 10.5579 24.7388 10.6875L35.2388 16.6875C35.4688 16.8203 35.6594 17.0118 35.7912 17.2424C35.9229 17.473 35.9911 17.7344 35.9888 18V30C35.9923 30.2645 35.9258 30.5252 35.796 30.7557C35.6663 30.9862 35.4779 31.1783 35.25 31.3125ZM16.5225 18L24 22.2731L31.4775 18L24 13.7269L16.5225 18ZM15 29.13L22.5 33.4144V24.87L15 20.5856V29.13ZM33 29.13V20.5856L25.5 24.87V33.4144L33 29.13Z" fill="#B0FF94"/>
</svg>
